<svg width="70" height="71" viewBox="0 0 70 71" fill="none" xmlns="http://www.w3.org/2000/svg">
<g opacity="0.5" clip-path="url(#clip0_482_268)">
<path d="M59.0312 44.5862C56.931 50.061 52.9784 54.6345 47.8549 57.518C42.7314 60.4016 36.7581 61.4145 30.965 60.3821C25.1719 59.3497 19.9221 56.3368 16.1207 51.8627C12.3194 47.3887 10.2047 41.734 10.1414 35.8737C10.0782 30.0134 12.0702 24.3147 15.7741 19.7603C19.478 15.2059 24.6615 12.0812 30.431 10.925C36.2005 9.76883 42.1942 10.6536 47.3788 13.4268C52.5634 16.2 56.6139 20.6877 58.8318 26.1163H69.9001C67.6068 17.8255 62.3667 10.6469 55.155 5.91642C47.9434 1.18598 39.2515 -0.77402 30.6971 0.40119C22.1426 1.5764 14.3082 5.80676 8.65209 12.305C2.99595 18.8032 -0.0966928 27.1265 -0.050266 35.726C-0.00383931 44.3255 3.1785 52.6153 8.90448 59.0525C14.6305 65.4898 22.51 69.636 31.0767 70.7196C39.6434 71.8031 48.3136 69.7502 55.4737 64.9428C62.6338 60.1354 67.7961 52.9011 69.9998 44.5862" fill="black"/>
<path d="M6.48134 31.0819C6.4272 31.0752 6.37223 31.0806 6.32047 31.0978C6.2687 31.115 6.22146 31.1435 6.1822 31.1812C6.08248 31.1812 5.88305 31.2805 5.88305 31.5784C5.73897 31.713 5.63538 31.885 5.58391 32.0749C5.40591 32.1532 5.26368 32.2949 5.18505 32.4721C5.14958 32.5717 5.08043 32.6559 4.98946 32.7102C4.8985 32.7646 4.79138 32.7857 4.68647 32.77C4.58676 32.8693 4.38733 32.8693 4.08818 32.8693C3.87327 32.8644 3.66481 32.7952 3.48989 32.6707C3.29046 32.4721 3.09103 32.3728 3.09103 32.2735C2.98268 32.1279 2.91398 31.9569 2.8916 31.777V31.0819C2.94473 30.8466 3.01131 30.6145 3.09103 30.3868C3.09672 30.2723 3.12624 30.1602 3.17774 30.0576C3.22924 29.9551 3.30158 29.8643 3.39018 29.791L4.08818 30.0889C4.04917 30.2641 3.98181 30.4318 3.88875 30.5854C3.88875 30.784 3.78904 30.9826 3.78904 31.1812V31.6777C3.88875 31.777 3.98847 31.8763 4.08818 31.8763C4.22874 31.8912 4.37004 31.856 4.48704 31.777C4.58676 31.6777 4.68647 31.5784 4.68647 31.4791C4.68647 31.3798 4.98562 31.1812 5.08533 30.9826C5.18505 30.784 5.28476 30.6847 5.38448 30.4861C5.48419 30.2875 5.78334 30.1882 5.88305 30.1882C6.07345 30.1143 6.27717 30.0805 6.48134 30.0889C6.78432 30.091 7.07749 30.1961 7.3123 30.3868L7.61145 30.6847C7.75396 30.8495 7.8256 31.0635 7.81088 31.2805C7.91986 31.5457 7.91986 31.8429 7.81088 32.108C7.81088 32.4059 7.61145 32.7038 7.61145 32.9355C7.55331 33.1523 7.45154 33.355 7.3123 33.5313L6.48134 33.0348L6.68077 32.9355C6.73779 32.8841 6.77337 32.8132 6.78049 32.7369C6.84992 32.6162 6.88444 32.4788 6.8802 32.3397C6.8802 32.2404 6.97992 32.1411 6.97992 31.9425C6.99577 31.7388 6.96154 31.5343 6.8802 31.3467C6.8802 31.2474 6.78049 31.1481 6.48134 31.1481" fill="white"/>
<path d="M6.68025 28.1014L3.38965 28.7966L3.78851 27.7042L5.6831 27.307H6.18167L5.6831 27.1084L4.18737 25.9168L4.48651 24.9238L6.87968 27.2077L8.67455 27.7042L8.3754 28.4987" fill="white"/>
<path d="M8.97406 23.3362H8.5752C8.47548 23.4355 8.37577 23.6341 8.17634 23.6341C7.97691 23.6341 7.87719 23.932 7.77748 24.0313C7.67776 24.1306 7.37862 24.3292 7.2789 24.4285C7.17919 24.5278 6.88004 24.5278 6.68061 24.5278C6.47604 24.5436 6.27069 24.5095 6.08232 24.4285C5.97348 24.4066 5.87147 24.3591 5.78476 24.29C5.69804 24.2209 5.62913 24.1322 5.58375 24.0313C5.38432 23.932 5.2846 23.8327 5.2846 23.6341C5.2353 23.5606 5.20898 23.4742 5.20898 23.3858C5.20898 23.2975 5.2353 23.2111 5.2846 23.1376C5.2846 22.8397 5.2846 22.6411 5.38432 22.5418C5.5388 22.2768 5.67216 22.0001 5.78318 21.7143C5.88289 21.5157 6.18204 21.4164 6.28175 21.2178L6.88004 21.9129C6.78033 21.9129 6.68061 22.0122 6.48118 22.2108C6.28175 22.4094 6.28175 22.608 6.18204 22.7073C6.13274 22.7808 6.10642 22.8672 6.10642 22.9555C6.10642 23.0439 6.13274 23.1303 6.18204 23.2038C6.18204 23.4024 6.18204 23.4024 6.38147 23.601H6.78033C6.88004 23.4024 6.97976 23.4024 7.07947 23.3031C7.25747 23.2248 7.3997 23.0831 7.47833 22.9059C7.77748 22.7073 7.87719 22.608 7.97691 22.608C8.07663 22.608 8.37577 22.3101 8.5752 22.3101C8.68349 22.2966 8.79342 22.3075 8.89695 22.3418C9.00047 22.3762 9.09496 22.4332 9.17349 22.5087C9.38247 22.5877 9.58292 22.6875 9.77178 22.8066C9.90706 22.9481 10.0092 23.1176 10.0709 23.3031C10.0709 23.601 10.1706 23.7003 10.0709 23.8989C9.97121 24.0975 9.8715 24.3954 9.8715 24.594C9.67207 24.9912 9.57235 25.2891 9.37292 25.4215C9.17349 25.5539 9.07378 25.7194 9.07378 25.918L8.47548 25.3222C8.47548 25.3222 8.47548 25.1236 8.5752 25.1236C8.67491 25.1236 8.67492 25.0243 8.67492 24.925C8.67492 24.8257 8.77463 24.8257 8.97406 24.6271C8.9846 24.5518 9.01962 24.4821 9.07378 24.4285C9.13805 24.3259 9.18011 24.2111 9.19728 24.0914C9.21445 23.9717 9.20635 23.8498 9.17349 23.7334C9.14862 23.584 9.07912 23.4456 8.97406 23.3362Z" fill="white"/>
<path d="M9.17473 17.5766L8.47672 18.7682L11.867 20.8535L11.3685 21.5486L7.97815 19.4633L7.28014 20.6549L6.48242 20.2577L8.57644 17.0801" fill="white"/>
<path d="M9.1748 16.1869L10.9697 14.1016L11.568 14.4988L10.3714 15.9883L11.3685 16.6834L12.3657 15.3925L13.0637 15.889L11.9668 17.1799L12.7645 17.875L14.0608 16.4848L14.7589 16.9813L12.964 19.1659" fill="white"/>
<path d="M16.3532 12.115L15.7549 11.3206V11.4199L15.9543 12.115L16.4529 14.101L16.1537 14.2996L14.2592 13.7038L13.5612 13.3066L14.2592 13.9024L15.8546 15.7891L15.2563 16.3849L12.0654 12.8101L12.6637 12.2143L15.0569 13.108L15.5555 13.3066L15.356 12.7108L14.8575 10.3276L15.4557 9.83105L18.6466 13.3066L17.8489 13.9024" fill="white"/>
<path d="M23.4334 10.2281C23.4334 10.4267 23.3336 10.526 23.0345 10.6253C22.9827 10.7411 22.899 10.8398 22.7931 10.9101C22.6872 10.9804 22.5634 11.0194 22.4362 11.0225C22.2368 11.3204 22.0374 11.3204 21.7382 11.4197C21.4576 11.4335 21.1766 11.3999 20.9073 11.3204C20.6081 11.3204 20.4087 11.0225 20.0763 10.9232C19.8769 10.6253 19.6774 10.3274 19.3783 9.93019C19.2018 9.58336 19.0678 9.21662 18.9794 8.83788C18.9378 8.52588 19.0085 8.20927 19.1789 7.94418C19.2786 7.64627 19.3783 7.44767 19.478 7.11667C19.687 7.03766 19.8874 6.93785 20.0763 6.81877C20.3754 6.52087 20.5749 6.52087 20.6746 6.42157C20.8443 6.40943 21.0118 6.37607 21.1732 6.32227L21.4723 7.14977H21.1067C21.007 7.24907 20.9073 7.24907 20.6081 7.44767C20.3205 7.64827 20.1096 7.93995 20.0098 8.27518C19.9684 8.48348 19.9737 8.69833 20.0254 8.90434C20.0771 9.11035 20.1739 9.30242 20.309 9.46679C20.3816 9.69947 20.5201 9.90635 20.7078 10.0626C20.9072 10.2612 21.007 10.3605 21.2064 10.3605C21.3558 10.4506 21.5322 10.4857 21.705 10.4598C21.8047 10.4598 22.1038 10.4598 22.2035 10.3605C22.4143 10.2489 22.6052 10.1035 22.7686 9.93019L22.968 9.73159" fill="white"/>
<path d="M22.4365 5.75961L25.1288 4.7666L25.428 5.46171L23.7328 6.15681L24.032 7.14982L25.6274 6.55401L25.8268 7.44772L24.3311 8.04352L24.73 9.13583L26.4251 8.34143L26.824 9.23513L24.1317 10.2281" fill="white"/>
<path d="M28.0193 4.76665C27.9651 4.75992 27.9102 4.76535 27.8584 4.78254C27.8066 4.79972 27.7594 4.82822 27.7201 4.86595H27.5207L27.8198 6.15686H28.119C28.3458 6.12538 28.5559 6.02074 28.7173 5.85896C28.9167 5.75966 28.9167 5.46176 28.9167 5.26315C28.7173 4.96525 28.7173 4.86595 28.5178 4.76665H28.0193ZM26.4238 4.36945C26.6233 4.36945 26.6233 4.27015 26.723 4.27015C26.8227 4.27015 26.9224 4.13775 27.0221 4.13775C27.1218 4.13775 27.3213 4.03845 27.421 4.03845C27.5207 4.03845 27.7201 4.03845 27.7201 3.83984H29.0164C29.1161 4.03845 29.4153 4.13775 29.515 4.23705C29.64 4.41124 29.7094 4.61883 29.7144 4.83285C29.8165 5.15605 29.8165 5.50266 29.7144 5.82586C29.5972 6.0922 29.3836 6.30488 29.1161 6.42166L29.515 6.52096L30.911 8.10977L30.0136 8.30838L28.5178 6.81887H28.0193L28.4181 8.70558L27.5207 8.90418L26.4238 4.36945Z" fill="white"/>
<path d="M34.2023 3.87253L32.906 4.07113L33.2051 7.94386L32.3077 8.04316L31.9088 4.17043L30.6125 4.26973L30.4131 3.47533L34.1025 3.07812" fill="white"/>
<path d="M35.2999 3.07812H36.0976V7.94386H35.2002" fill="white"/>
<path d="M37.5933 3.17773L40.3853 3.47564L40.2856 4.27004L38.391 4.07144L38.2913 5.26305L39.9865 5.46165L39.8867 6.15676L38.1916 6.05745L37.9922 8.04347L37.0947 7.94417" fill="white"/>
<path d="M41.5811 3.6748L42.3789 3.87341L41.4814 8.54054L40.584 8.34194" fill="white"/>
<path d="M45.5698 9.4335C45.4913 9.50896 45.3968 9.56596 45.2933 9.60033C45.1897 9.63469 45.0798 9.64555 44.9715 9.6321C44.75 9.50872 44.516 9.40887 44.2735 9.3342C44.1135 9.33677 43.9552 9.30223 43.8109 9.23328C43.6667 9.16434 43.5406 9.0629 43.4425 8.93699C43.2642 8.77258 43.1275 8.5684 43.0437 8.34119C42.9323 8.23617 42.8472 8.10659 42.7953 7.96287C42.7433 7.81916 42.7259 7.6653 42.7445 7.51368C42.7499 7.13025 42.8528 6.75443 43.0437 6.42137C43.0798 6.02911 43.2172 5.65282 43.4425 5.32907C43.7417 5.13047 43.9411 4.83257 44.2735 4.73326C44.538 4.6322 44.8235 4.59808 45.1045 4.63396C45.3418 4.61054 45.5812 4.64461 45.8025 4.73326C46.0204 4.7186 46.2353 4.78994 46.4008 4.93186C46.6999 4.93186 46.7996 5.13047 46.7996 5.22977L46.4008 5.92487C46.3011 5.82557 46.2013 5.72627 46.1016 5.72627C46.0019 5.52767 45.8025 5.52767 45.603 5.42837C45.2681 5.36218 44.921 5.39674 44.6059 5.52767C44.3169 5.85963 44.0712 6.22664 43.8747 6.61998C43.895 6.89963 43.8612 7.18058 43.7749 7.44748C43.8179 7.61089 43.8512 7.77668 43.8747 7.94398C43.9744 8.14259 43.9744 8.24189 44.2735 8.34119C44.3732 8.53979 44.4729 8.63909 44.6724 8.63909C44.8283 8.71122 44.9992 8.74527 45.1709 8.73839H45.5698" fill="white"/>
<path d="M47.9633 8.83737L48.8607 9.23457L49.0601 8.14226L49.1598 7.44716L48.6613 8.04296L47.9633 8.83737ZM48.6613 10.029L47.365 9.33387L46.667 10.2276L45.7695 9.83038L49.459 6.15625L50.0573 6.55345L49.459 11.5185L48.5283 11.1213L48.6613 10.029Z" fill="white"/>
<path d="M54.3452 10.0291L53.1486 9.33398L51.0546 12.6109L50.2568 12.1144L52.4506 8.83748L51.254 8.14237L51.7526 7.44727L54.744 9.33398" fill="white"/>
<path d="M55.6418 10.0293L56.3399 10.6251L53.4481 14.2992L52.6504 13.8027" fill="white"/>
<path d="M56.4394 13.8033C56.24 14.1012 56.0405 14.2005 55.9408 14.3991C55.8162 14.5352 55.7454 14.7116 55.7414 14.8956V15.3921C55.7414 15.4914 55.8411 15.5907 55.9408 15.7893C56.0616 15.8949 56.2071 15.9685 56.364 16.0032C56.5208 16.0379 56.684 16.0326 56.8382 15.9879C57.2507 15.8903 57.6294 15.6846 57.9351 15.3921C57.9866 15.2022 58.0902 15.0302 58.2343 14.8956C58.334 14.697 58.5334 14.4984 58.5334 14.3991C58.5827 14.3256 58.609 14.2392 58.609 14.1509C58.609 14.0625 58.5827 13.9761 58.5334 13.9026C58.5334 13.704 58.334 13.6047 58.2343 13.4061C58.1498 13.3092 58.0388 13.2388 57.9149 13.2036C57.791 13.1683 57.6594 13.1697 57.5363 13.2075C57.3217 13.2248 57.1132 13.2868 56.9243 13.3894C56.7353 13.4921 56.5701 13.6331 56.4394 13.8033ZM55.7414 13.2075C56.1726 12.7058 56.7559 12.3573 57.4033 12.2145C57.666 12.2032 57.9278 12.2509 58.1694 12.3541C58.4111 12.4572 58.6264 12.6131 58.7993 12.8103C59.0985 13.1082 59.2979 13.3068 59.2979 13.704C59.3807 13.926 59.4147 14.163 59.3976 14.3991C59.3791 14.7057 59.3118 15.0073 59.1982 15.2928L58.5002 15.9879C58.3091 16.2608 58.0623 16.4904 57.7759 16.6615C57.4895 16.8326 57.1699 16.9415 56.8382 16.9809C56.2855 16.9604 55.757 16.7499 55.3425 16.3851C55.1431 16.0872 55.0434 15.8886 54.8439 15.5576C54.7641 15.2894 54.7304 15.0096 54.7442 14.7301C54.8122 14.4211 54.9613 14.1355 55.1763 13.9026C55.3096 13.6407 55.5032 13.4138 55.7414 13.2406V13.2075Z" fill="white"/>
<path d="M60.0282 17.7751L60.4271 17.08L59.8288 17.5765L57.7348 18.9667L57.3359 18.2716L61.3245 15.4912L61.6237 16.087L60.5268 18.9667L60.2277 19.7611L60.826 19.2646L62.7206 17.7751L63.3188 18.4702L59.3302 21.2507L59.0311 20.6548" fill="white"/>
<path d="M19.4437 35.7477H17.8483V38.3295H19.344C19.7619 38.3898 20.1876 38.2956 20.5406 38.0647C20.9394 37.8661 21.0391 37.4689 21.0391 36.9724C21.0391 36.1449 20.5406 35.7808 19.4437 35.7808V35.7477ZM19.2443 32.4045H17.8483V34.5892H19.344C19.5876 34.5696 19.8248 34.5021 20.042 34.3905C20.1747 34.2836 20.28 34.1468 20.3493 33.9914C20.4186 33.8361 20.45 33.6666 20.4409 33.4968C20.4409 33.1989 20.3411 32.8017 20.042 32.6693C19.9423 32.4707 19.5434 32.3714 19.2443 32.3714V32.4045ZM19.5434 39.6535H16.3525V31.0805H18.6127C18.9811 31.0685 19.3495 31.1018 19.7096 31.1798C19.9904 31.1595 20.2726 31.1932 20.5406 31.2791C20.9394 31.4777 21.0392 31.577 21.2386 31.6763C21.438 31.7756 21.5377 32.0735 21.6374 32.2721C21.7516 32.5919 21.8187 32.9263 21.8369 33.2651C21.8652 33.5994 21.8137 33.9356 21.6866 34.2462C21.5595 34.5569 21.3604 34.8332 21.1056 35.0526C21.5684 35.2074 21.9585 35.5252 22.2025 35.9463C22.4682 36.2864 22.609 36.707 22.6014 37.1379C22.561 37.5476 22.4602 37.9491 22.3022 38.3295C22.0965 38.6268 21.8628 38.9039 21.6042 39.157C21.2905 39.3318 20.9553 39.4653 20.6071 39.5542C20.2575 39.6267 19.8993 39.649 19.5434 39.6204V39.6535Z" fill="black"/>
<path d="M32.0085 39.6209H30.6125L29.7151 33.7622L27.5214 37.8335L25.4273 33.9608L24.6296 39.6209H23.0342L24.131 31.0811H25.5271L27.5214 34.9538L29.7151 31.0811H30.9117L32.0085 39.6209Z" fill="black"/>
<path d="M39.4872 32.6699H37.0941V39.6209H35.4986V32.6699H33.1055V31.0811H39.4872V32.6699Z" fill="black"/>
<path d="M43.0772 32.372H41.7809V35.0531H42.8777C43.7087 35.0531 44.0743 34.9538 44.3735 34.6559C44.5746 34.4017 44.6804 34.0857 44.6726 33.7622C44.6726 33.2657 44.5729 32.8685 44.3735 32.7692C44.1976 32.6159 43.9912 32.5013 43.7679 32.4329C43.5445 32.3644 43.3091 32.3437 43.0772 32.372ZM46.7666 39.6209H45.1047L43.4428 36.5426H41.7809V39.6209H40.2852V31.0811H43.3763C45.3706 31.0811 46.2681 31.9086 46.2681 33.5636C46.2967 34.0773 46.1937 34.5898 45.9689 35.0531C45.6774 35.4571 45.3037 35.7955 44.872 36.0461L46.7666 39.6209Z" fill="black"/>
<path d="M51.7521 36.0461L50.7549 33.4643L49.924 36.0461H51.7188H51.7521ZM54.5109 39.6209H52.9154L52.2174 37.6349H49.4254L48.528 39.6209H47.0322L50.0237 31.0811H51.4197L54.5109 39.6209Z" fill="black"/>
<path d="M58.3344 32.6707H56.6725V38.0661H58.3344C58.6814 38.0882 59.0292 38.0378 59.3555 37.9181C59.6818 37.7984 59.9793 37.612 60.229 37.371C60.6044 36.8114 60.8119 36.157 60.8273 35.4842C60.84 34.7454 60.6318 34.0195 60.229 33.3989C59.9793 33.1579 59.6818 32.9715 59.3555 32.8518C59.0292 32.7321 58.6814 32.6817 58.3344 32.7038V32.6707ZM58.3344 39.6549H55.1768V31.0819H58.3676C58.931 31.0707 59.491 31.1702 60.0157 31.3746C60.5404 31.5791 61.0195 31.8846 61.4256 32.2735C61.8092 32.7054 62.1035 33.2083 62.2917 33.7536C62.4799 34.2988 62.5583 34.8757 62.5224 35.4511C62.5598 36.5484 62.1664 37.617 61.4256 38.4302C61.0293 38.8419 60.547 39.162 60.0129 39.3679C59.4788 39.5738 58.9058 39.6605 58.3344 39.6218V39.6549Z" fill="black"/>
<path d="M67.1076 36.0461L66.1105 33.4643L65.2795 36.0461H67.0744H67.1076ZM69.8664 39.6209H68.3042L67.6062 37.6349H64.8142L63.9167 39.6209H62.3213L65.4125 31.0811H66.8085L69.8664 39.6209Z" fill="black"/>
<path d="M24.9284 61.4668L25.427 61.7647L23.8316 65.836L23.333 65.6374" fill="white"/>
<path d="M27.2224 65.7374V65.3733C27.0229 65.274 26.9232 64.9761 26.8235 64.8768C26.7098 64.7542 26.5747 64.6533 26.4247 64.5789L26.0258 64.1817C25.8264 64.0824 25.8264 63.7845 25.7266 63.6852V63.0894C25.7684 62.9366 25.8437 62.7949 25.9472 62.6747C26.0506 62.5545 26.1797 62.4587 26.3249 62.3943C26.6837 62.2944 27.0631 62.2944 27.4218 62.3943C27.7209 62.4936 27.9204 62.4936 28.0201 62.5929C28.2227 62.6722 28.3965 62.8107 28.5187 62.9901L28.3192 63.288C28.1198 63.1887 28.0201 63.1887 27.9204 63.0894C27.7384 62.9794 27.5339 62.9115 27.3221 62.8908C26.9232 62.6922 26.8235 62.6922 26.6241 62.8908C26.5835 62.8853 26.5422 62.8893 26.5034 62.9023C26.4646 62.9153 26.4294 62.9371 26.4004 62.966C26.3715 62.9948 26.3496 63.0299 26.3365 63.0685C26.3234 63.1072 26.3194 63.1483 26.3249 63.1887C26.2759 63.2433 26.2488 63.314 26.2488 63.3873C26.2488 63.4606 26.2759 63.5313 26.3249 63.5859C26.3249 63.6852 26.4246 63.7845 26.6241 63.9831C26.7027 64.1603 26.8449 64.302 27.0229 64.3803L27.4218 64.7775C27.5215 64.9761 27.7209 65.1747 27.7209 65.274C27.7704 65.3656 27.7963 65.4679 27.7963 65.5719C27.7963 65.6759 27.7704 65.7782 27.7209 65.8698C27.6845 66.0658 27.5783 66.2421 27.4218 66.3663L27.0229 66.7635H25.8264C25.6313 66.5742 25.3911 66.4375 25.1283 66.3663C25.0286 66.267 24.9289 66.0684 24.7295 66.0684L25.0286 65.6712C25.1423 65.7938 25.2775 65.8948 25.4275 65.9691C25.6366 66.0478 25.8371 66.1476 26.0258 66.267H26.3249C26.4246 66.3663 26.6241 66.267 26.7238 66.267C26.8235 66.267 26.9232 66.0684 26.9232 66.0684C26.9232 66.0684 27.2224 65.8698 27.2224 65.7705" fill="white"/>
<path d="M29.5151 65.2404C29.4323 65.4624 29.3983 65.6994 29.4153 65.9355C29.4153 66.0348 29.5151 66.3327 29.5151 66.5313C29.5897 66.6807 29.6911 66.8153 29.8142 66.9285C29.9685 67.0212 30.1369 67.0883 30.3128 67.1271C30.7116 67.3257 31.0108 67.1271 31.3099 66.9285C31.6091 66.7299 31.8085 66.2334 31.9082 65.6376V64.8101C31.9167 64.6068 31.8827 64.4039 31.8085 64.2143C31.7181 64.0684 31.5756 63.962 31.4096 63.9164C31.3742 63.8169 31.305 63.7327 31.2141 63.6783C31.1231 63.624 31.016 63.6028 30.9111 63.6185C30.7488 63.5714 30.576 63.5747 30.4156 63.6279C30.2553 63.6811 30.115 63.7818 30.0136 63.9164C29.8367 64.0791 29.6997 64.2802 29.6133 64.504C29.5268 64.7279 29.4932 64.9685 29.5151 65.2073V65.2404ZM28.9168 65.108C28.94 64.5097 29.1893 63.9423 29.6148 63.5192C29.7896 63.3334 30.0118 63.1983 30.2576 63.1283C30.5035 63.0584 30.7638 63.0562 31.0108 63.122C31.3138 63.1241 31.6069 63.2292 31.8417 63.4199C32.0412 63.5192 32.1409 63.7178 32.3403 64.0157C32.5397 64.3136 32.44 64.5122 32.5397 64.7108C32.5469 65.0446 32.5134 65.378 32.44 65.7038C32.351 66.2851 32.1103 66.833 31.742 67.2926C31.5441 67.4385 31.3171 67.5405 31.0763 67.5918C30.8356 67.6432 30.5866 67.6428 30.346 67.5905C30.0574 67.5888 29.773 67.5209 29.5151 67.3919C29.4153 67.094 29.1162 66.9947 29.0165 66.7961C28.9302 66.5292 28.8964 66.2483 28.9168 65.9686C28.7173 65.7369 28.9168 65.439 28.9168 65.1411V65.108Z" fill="white"/>
<path d="M35.2331 64.8426C35.2349 65.13 35.3031 65.4132 35.4326 65.6701C35.623 65.744 35.8267 65.7778 36.0309 65.7694C36.33 65.7694 36.5294 65.7694 36.6292 65.6701C36.6936 65.6443 36.7512 65.604 36.7973 65.5523C36.8434 65.5006 36.8769 65.4389 36.8951 65.3722V64.6771C36.6956 64.5778 36.6956 64.3792 36.5959 64.2799C36.4962 64.1806 36.4962 64.1806 36.3965 64.0813C36.2968 63.982 36.0973 63.982 35.9976 63.982C35.7827 63.9869 35.5743 64.0561 35.3993 64.1806C35.2873 64.3968 35.2195 64.6331 35.1999 64.8757L35.2331 64.8426ZM34.7013 64.975V64.3792C34.776 64.2298 34.8774 64.0952 35.0005 63.982C35.0005 63.7834 35.2996 63.6841 35.3993 63.6841C35.499 63.6841 35.7982 63.5848 35.9976 63.5848C36.1828 63.5751 36.3679 63.6056 36.5401 63.6742C36.7122 63.7427 36.8674 63.8478 36.9948 63.982C37.2798 64.3115 37.4231 64.7396 37.3936 65.1736C37.4176 65.5806 37.3495 65.9879 37.1942 66.3652C37.1313 66.6529 37.0308 66.9311 36.8951 67.1927C36.6719 67.4567 36.3863 67.6614 36.0641 67.7885C35.9586 67.8994 35.8285 67.9841 35.6842 68.0359C35.5399 68.0876 35.3854 68.1049 35.2331 68.0864L35.1334 67.6892C35.377 67.6697 35.6143 67.6022 35.8314 67.4906C35.9311 67.3913 36.2303 67.1927 36.33 67.0934C36.4692 66.917 36.571 66.7143 36.6292 66.4976C36.6292 66.3983 36.8286 66.1004 36.8286 65.9018C36.6292 66.0011 36.5294 66.1004 36.4297 66.1004C36.33 66.299 36.0309 66.299 35.9311 66.299C35.8379 66.3112 35.7431 66.2994 35.6558 66.2646C35.5685 66.2298 35.4916 66.1733 35.4326 66.1004C35.2331 66.1004 35.1334 66.0011 34.934 65.9018C34.873 65.8547 34.8234 65.7945 34.7889 65.7258C34.7544 65.657 34.7358 65.5814 34.7346 65.5046C34.6499 65.3286 34.6379 65.1265 34.7013 64.9419V64.975Z" fill="white"/>
<path d="M38.6898 65.6383C38.7695 65.8661 38.8361 66.0982 38.8892 66.3335C38.8865 66.4495 38.9123 66.5645 38.9645 66.6684C39.0166 66.7722 39.0935 66.8618 39.1884 66.9293C39.1884 67.0286 39.2881 67.1279 39.3878 67.3265H39.8864C40.2852 67.3265 40.3849 67.0286 40.4847 66.83C40.5854 66.3385 40.5854 65.8319 40.4847 65.3404C40.5017 65.1043 40.4677 64.8673 40.3849 64.6453C40.3877 64.5293 40.3618 64.4143 40.3097 64.3104C40.2576 64.2066 40.1807 64.117 40.0858 64.0495C39.9861 63.9502 39.8864 63.7516 39.7867 63.7516C39.6697 63.6726 39.5284 63.6375 39.3878 63.6523C39.3083 63.6488 39.2289 63.6618 39.1547 63.6905C39.0805 63.7192 39.0131 63.763 38.9569 63.819C38.9006 63.875 38.8566 63.9421 38.8278 64.016C38.799 64.0899 38.786 64.169 38.7895 64.2481C38.6898 64.7044 38.6562 65.1726 38.6898 65.6383ZM38.1912 65.7376C38.059 65.144 38.0935 64.5256 38.2909 63.9502C38.5901 63.553 38.7895 63.2551 39.2881 63.1227C39.5141 63.0882 39.7452 63.1163 39.9563 63.2039C40.1673 63.2915 40.3501 63.4351 40.4847 63.6192C40.7765 64.1096 40.979 64.6475 41.0829 65.208C41.1587 65.8049 41.1249 66.4106 40.9832 66.9955C40.8567 67.1788 40.6944 67.3348 40.5059 67.4543C40.3174 67.5737 40.1067 67.6541 39.8864 67.6906C39.6849 67.7185 39.4796 67.6969 39.2884 67.6277C39.0972 67.5585 38.9259 67.4437 38.7895 67.2934C38.4213 66.8558 38.2107 66.3082 38.1912 65.7376Z" fill="white"/>
<path d="M42.1794 64.9427C42.2962 65.204 42.3638 65.4845 42.3788 65.7702C42.5411 65.91 42.6763 66.0782 42.7777 66.2667C42.8774 66.4653 43.0768 66.4653 43.1765 66.5646H43.6751C43.7998 66.5255 43.9074 66.445 43.98 66.3367C44.0525 66.2283 44.0857 66.0985 44.0739 65.9688C44.2734 65.6709 44.0739 65.1413 43.9742 64.5786C43.989 64.3616 43.9173 64.1475 43.7748 63.9827C43.6751 63.6848 43.6751 63.4862 43.4757 63.2876C43.2762 63.089 43.2762 63.089 43.1765 63.089C43.1027 63.0399 43.016 63.0137 42.9272 63.0137C42.8385 63.0137 42.7517 63.0399 42.6779 63.089C42.2791 63.089 42.1794 63.2876 42.0797 63.6848C42.0735 64.1173 42.1069 64.5494 42.1794 64.9758V64.9427ZM41.6808 65.1744C41.5348 64.6323 41.5348 64.0614 41.6808 63.5193C41.7128 63.2936 41.8176 63.0843 41.9795 62.9231C42.1414 62.7619 42.3515 62.6575 42.5782 62.6256C42.7869 62.5739 43.0052 62.574 43.2138 62.626C43.4225 62.6779 43.6151 62.7801 43.7748 62.9235C44.1622 63.3324 44.407 63.8547 44.4728 64.413C44.6491 65.0263 44.6832 65.6715 44.5725 66.2998C44.415 66.6733 44.1166 66.9704 43.7416 67.1273C43.5339 67.1924 43.3123 67.199 43.1011 67.1464C42.8899 67.0938 42.6974 66.9841 42.545 66.8294C42.1466 66.3298 41.8527 65.7558 41.6808 65.1413V65.1744Z" fill="white"/>
<path d="M46.1684 65.7367L47.0658 65.3395L45.9689 62.5591L45.7695 62.2612L45.6698 62.5591L45.1712 63.1549L44.8721 63.0556L45.7695 61.4668H46.0687L47.4647 65.2402L48.2624 64.843L48.4618 65.3395L46.3678 66.0346" fill="white"/>
</g>
<defs>
<clipPath id="clip0_482_268">
<rect width="70" height="71" fill="white"/>
</clipPath>
</defs>
</svg>
