<svg width="70" height="71" viewBox="0 0 70 71" fill="none" xmlns="http://www.w3.org/2000/svg">
<g style="mix-blend-mode:darken" opacity="0.75" clip-path="url(#clip0_277_493)">
<path d="M58.7457 44.6403C56.6666 50.1078 52.744 54.6779 47.6549 57.5619C42.5658 60.4458 36.6296 61.4626 30.8708 60.4368C25.112 59.411 19.892 56.4069 16.1118 51.9431C12.3316 47.4792 10.2284 41.8357 10.1651 35.9866C10.1019 30.1375 12.0826 24.4498 15.7655 19.9053C19.4483 15.3608 24.6021 12.2445 30.3374 11.0944C36.0726 9.94436 42.0295 10.8326 47.1797 13.6059C52.33 16.3791 56.3505 20.8634 58.5472 26.2847H69.5606C67.2896 18.0067 62.0873 10.8363 54.9225 6.10901C47.7576 1.38169 39.1188 -0.580304 30.6149 0.588431C22.111 1.75717 14.3218 5.97696 8.69798 12.4619C3.07413 18.9468 -0.00095902 27.2548 0.0454394 35.8385C0.0918378 44.4222 3.25656 52.6964 8.95019 59.1202C14.6438 65.544 22.4782 69.6793 30.9942 70.756C39.5103 71.8328 48.1273 69.7775 55.2406 64.973C62.3539 60.1685 67.4785 52.9423 69.6598 44.6403" fill="black"/>
<path d="M6.55628 31.1139C6.45706 31.1139 6.35784 31.1139 6.25863 31.3124C6.21825 31.3069 6.17716 31.3109 6.13856 31.3239C6.09996 31.3369 6.06488 31.3587 6.03607 31.3875C6.00727 31.4163 5.9855 31.4514 5.97247 31.49C5.95944 31.5286 5.95551 31.5697 5.96097 31.61C5.86175 31.7093 5.76253 31.9077 5.56409 32.1061C5.44313 32.2574 5.34302 32.4243 5.26643 32.6022C5.1305 32.7262 4.95425 32.7967 4.77033 32.8007C4.67111 32.9991 4.37345 32.9991 4.17501 32.9991C3.95124 32.9617 3.74385 32.8581 3.57969 32.7015C3.28203 32.6022 3.18282 32.503 3.18282 32.4038C3.09021 32.2503 3.02319 32.0827 2.98438 31.9077V31.0809C3.0637 30.8533 3.12995 30.6214 3.18282 30.3863C3.1801 30.2704 3.20581 30.1555 3.25769 30.0517C3.30957 29.9479 3.38606 29.8584 3.48048 29.791L4.17501 30.1879C4.17501 30.2871 4.07579 30.3863 3.97657 30.684C3.87735 30.9817 3.77813 30.9816 3.77813 31.2793V31.6762C3.97657 31.8746 4.07579 31.9738 4.17501 31.9738C4.2999 31.9824 4.42494 31.9597 4.53882 31.9077C4.63804 31.7093 4.73726 31.61 4.73726 31.5108C4.88853 31.3616 5.02174 31.1951 5.13414 31.0147C5.27751 30.8802 5.38058 30.7084 5.43179 30.5186C5.57728 30.4108 5.74818 30.3425 5.92789 30.3202C6.11735 30.2463 6.32005 30.2126 6.52321 30.221C6.76789 30.2266 7.00702 30.2949 7.21775 30.4194C7.41619 30.5186 7.51541 30.7171 7.61463 30.8163C7.70387 31.0012 7.7383 31.2078 7.71384 31.4116C7.76422 31.5204 7.79031 31.6389 7.79031 31.7589C7.79031 31.8788 7.76422 31.9973 7.71384 32.1061C7.71384 32.503 7.61463 32.7015 7.61463 32.9991C7.5178 33.219 7.38351 33.4205 7.21775 33.5944L6.52321 33.0983L6.62243 32.9991C6.82087 32.8007 6.82087 32.7015 6.82087 32.7015C6.85857 32.6624 6.88705 32.6154 6.90422 32.5639C6.92139 32.5124 6.92681 32.4577 6.92009 32.4038C6.92009 32.2054 7.01931 32.1061 7.01931 32.0069C7.01931 31.7093 7.01931 31.5108 6.92009 31.4116C6.82087 31.3124 6.82087 31.1139 6.52321 31.1139" fill="white"/>
<path d="M6.6555 28.1379L3.48047 28.8325L3.77813 27.741L5.76252 27.4434H6.25862L5.76252 27.1457L4.27423 25.9551L4.57188 24.9629L6.95316 27.3442L8.73911 27.741L8.34223 28.634" fill="white"/>
<path d="M8.93829 23.4752H8.67371C8.56437 23.5798 8.42606 23.6489 8.27683 23.6737C8.07839 23.7729 7.87995 24.0705 7.78073 24.1697C7.68151 24.269 7.48307 24.3682 7.28463 24.5666C7.08942 24.6168 6.89024 24.6499 6.68932 24.6658C6.48662 24.6676 6.28517 24.634 6.094 24.5666C5.95432 24.4051 5.78616 24.2706 5.5979 24.1697C5.52794 24.1087 5.47347 24.0318 5.43897 23.9456C5.40447 23.8593 5.39093 23.7661 5.39946 23.6737C5.35041 23.6002 5.32422 23.5139 5.32422 23.4256C5.32422 23.3373 5.35041 23.251 5.39946 23.1776C5.39946 22.9791 5.39946 22.6815 5.49868 22.5822C5.60919 22.3389 5.74205 22.1064 5.89556 21.8877C5.99478 21.6893 6.29244 21.4908 6.39166 21.3916L6.98698 21.9869C6.88776 21.9869 6.68932 22.0861 6.5901 22.3838C6.46914 22.5351 6.36903 22.702 6.29244 22.8799C6.094 23.0783 6.094 23.1776 6.29244 23.376C6.29244 23.5744 6.29244 23.5744 6.49088 23.6737H6.88776C6.98698 23.5744 7.0862 23.5744 7.18542 23.4752L7.58229 23.0783C7.78073 22.8799 7.87995 22.6815 8.07839 22.6815C8.25244 22.5571 8.45986 22.488 8.67371 22.483C8.87687 22.4746 9.07957 22.5084 9.26903 22.5822C9.48219 22.691 9.68197 22.8242 9.86434 22.9791C9.97216 23.1246 10.0405 23.2955 10.0628 23.4752C10.0628 23.6737 10.162 23.7729 10.0628 24.0705C9.96356 24.3682 9.96356 24.5666 9.96356 24.7651C9.83957 25.0235 9.67172 25.2585 9.46746 25.4596C9.36825 25.7573 9.16981 25.8565 9.16981 25.9557L8.57449 25.3604C8.57449 25.3341 8.58494 25.3088 8.60355 25.2902C8.62216 25.2716 8.64739 25.2612 8.67371 25.2612C8.67371 25.1619 8.77293 25.1619 8.77293 24.9635C8.87215 24.9635 8.87215 24.8643 8.97137 24.7651C9.07059 24.6658 9.16981 24.5666 9.16981 24.5666C9.3083 24.3141 9.34385 24.0179 9.26903 23.7398C9.26903 23.6406 9.16981 23.5414 8.97137 23.4421" fill="white"/>
<path d="M9.23655 17.6205L8.54201 18.9104L11.8163 20.8948L11.4194 21.6885L8.04591 19.6049L7.25215 20.7955L6.55762 20.2994L8.64123 17.2236" fill="white"/>
<path d="M9.23633 16.3293L11.0223 14.1465L11.6176 14.6426L10.427 16.1309L11.4192 16.8254L12.3121 15.5356L13.1059 15.9324L12.0145 17.3215L12.8082 18.0161L13.9989 16.627L14.6934 17.0239L12.9075 19.2067" fill="white"/>
<path d="M16.2805 12.2625L15.6852 11.3695V11.568L15.9828 12.2625L16.3797 14.1477L16.1813 14.4454L14.2961 13.85L13.5024 13.4532L14.2961 14.0485L15.7844 15.8344L15.1891 16.4297L12.1133 12.9571L12.7086 12.3617L15.0899 13.2547L15.586 13.4532L15.3875 12.8578L14.8914 10.4766L15.4867 9.98047L18.5626 13.4532L17.868 14.0485" fill="white"/>
<path d="M23.4236 10.2772C23.4236 10.5748 23.2251 10.6741 23.0267 10.7733C22.9635 10.8798 22.8772 10.9708 22.7742 11.0394C22.6711 11.1081 22.554 11.1528 22.4314 11.1702C22.2329 11.3686 21.9353 11.3686 21.7368 11.567C21.4264 11.5862 21.1169 11.5174 20.8439 11.3686C20.5962 11.3122 20.3609 11.2113 20.1493 11.0709C19.8834 10.758 19.6402 10.4265 19.4217 10.0787C19.2182 9.7449 19.0833 9.37388 19.0248 8.98733C19.0034 8.65339 19.0369 8.31821 19.124 7.99513C19.2776 7.7764 19.4104 7.54389 19.5209 7.30059C19.7408 7.20376 19.9423 7.06947 20.1162 6.90371C20.3147 6.70527 20.6123 6.70527 20.7116 6.60605C20.8787 6.58275 21.0444 6.54962 21.2077 6.50684L21.4061 7.33367H21.1084C20.9231 7.39507 20.7537 7.49672 20.6123 7.63133C20.4471 7.70169 20.3043 7.81593 20.1993 7.96168C20.0944 8.10743 20.0313 8.27913 20.017 8.45816C19.9683 8.84825 20.0497 9.24351 20.2485 9.58264C20.3478 9.8803 20.5462 9.97952 20.7446 10.178C20.7969 10.2642 20.8694 10.3363 20.9558 10.3882C21.0423 10.4401 21.1401 10.4701 21.2407 10.4756C21.3399 10.5748 21.4392 10.5748 21.7368 10.5748C21.9077 10.5817 22.0778 10.5477 22.2329 10.4756L22.6298 10.0787C22.7434 10.0372 22.8454 9.96917 22.9275 9.8803" fill="white"/>
<path d="M22.4326 5.91212L25.1115 4.91992L25.31 5.61446L23.6233 6.309L24.0201 7.30119L25.5084 6.70587L25.8061 7.59885L24.2186 8.19417L24.7147 9.28558L26.4014 8.49183L26.7983 9.3848L24.1194 10.2778" fill="white"/>
<path d="M27.9879 4.95339C27.7895 4.95339 27.6902 4.95339 27.591 5.05261H27.4918L27.6902 6.30939H28.0871C28.3128 6.27794 28.5219 6.17338 28.6824 6.01173C28.7817 5.91251 28.7817 5.61486 28.7817 5.41642C28.7817 5.21798 28.6824 5.01954 28.484 4.92032H27.9879V4.95339ZM26.4004 4.52344C26.4996 4.52344 26.4996 4.42422 26.5988 4.42422C26.698 4.42422 26.8965 4.325 26.9957 4.325C27.0949 4.325 27.1941 4.22578 27.3926 4.22578C27.591 4.22578 27.591 4.22578 27.591 4.02734H28.8809C29.0793 4.22578 29.2778 4.325 29.377 4.42422C29.5336 4.58838 29.6373 4.79577 29.6746 5.01954C29.7762 5.34248 29.7762 5.6888 29.6746 6.01173C29.4762 6.21017 29.2778 6.50783 29.0793 6.60705L29.377 6.70627L30.8653 8.26071L29.8731 8.45915L28.5171 6.90471H28.021L28.3186 8.8891L27.4918 9.08754L26.4004 4.52344Z" fill="white"/>
<path d="M34.0403 4.02618L32.7504 4.22462L33.1473 7.99496L32.1551 8.1934L31.7582 4.32384L30.4684 4.42306L30.3691 3.53008L33.941 3.23242" fill="white"/>
<path d="M35.1305 3.23242H36.0234V7.99496H35.0312" fill="white"/>
<path d="M37.4131 3.33203L40.1912 3.53047L40.092 4.42345L38.3061 4.22501L38.2068 5.41564L39.8936 5.61408L39.6951 6.30862L38.0084 6.2094L37.81 8.19379L36.917 7.99535" fill="white"/>
<path d="M41.3832 3.8291L42.2762 4.02754L41.284 8.59164L40.4902 8.49242" fill="white"/>
<path d="M45.3505 9.5841C45.1657 9.67334 44.9591 9.70778 44.7552 9.68332C44.5568 9.5841 44.2591 9.5841 44.0607 9.48488C43.9265 9.47747 43.7961 9.43746 43.6808 9.3683C43.5656 9.29915 43.4689 9.20294 43.3992 9.088C43.1618 8.96281 42.9834 8.74881 42.9031 8.49268C42.7404 8.24423 42.6385 7.96099 42.6055 7.66585C42.6451 7.28836 42.7456 6.91978 42.9031 6.57443C42.9262 6.16138 43.1032 5.77196 43.3992 5.48302C43.5776 5.22987 43.8163 5.02524 44.0938 4.8877C44.3589 4.795 44.641 4.76115 44.9206 4.78848C45.2 4.76819 45.4807 4.80187 45.7474 4.8877C45.9613 4.89266 46.1687 4.9618 46.3427 5.08614C46.3831 5.08068 46.4242 5.08462 46.4628 5.09765C46.5014 5.11068 46.5365 5.13244 46.5653 5.16125C46.5941 5.19006 46.6159 5.22513 46.6289 5.26373C46.6419 5.30234 46.6459 5.34343 46.6404 5.3838L46.3427 6.07834C46.2334 5.9738 46.0951 5.90464 45.9459 5.8799C45.8466 5.68146 45.7474 5.68146 45.4498 5.58224C45.1493 5.5161 44.8354 5.55098 44.5568 5.68146C44.2341 6.00711 43.9561 6.37411 43.73 6.77288C43.7503 7.0523 43.7166 7.33302 43.6307 7.59971C43.6307 7.69893 43.73 7.89736 43.73 7.99658C43.9284 8.29424 43.9284 8.39346 44.1268 8.49268C44.1791 8.57888 44.2516 8.65104 44.338 8.70291C44.4245 8.75478 44.5223 8.78479 44.6229 8.79034C44.7716 8.88034 44.9472 8.91544 45.119 8.88956H45.4167" fill="white"/>
<path d="M47.7329 8.98752L48.6259 9.3844L48.8243 8.29299L49.0228 7.59845L48.5267 8.19377L47.7329 8.98752ZM48.5267 10.1782L47.1376 9.48362L46.443 10.3105L45.6162 10.0128L49.1881 6.30859L49.7834 6.70547L49.1881 11.6665L48.3613 11.2696L48.5267 10.1782Z" fill="white"/>
<path d="M54.1809 10.1783L52.9903 9.48381L50.8074 12.7581L50.0137 12.262L52.1965 8.98771L51.0059 8.29317L51.502 7.59863L54.4786 9.48381" fill="white"/>
<path d="M55.3735 10.1787L56.068 10.774L53.1906 14.4452L52.4961 13.9491" fill="white"/>
<path d="M56.1675 13.9489C55.9783 14.1262 55.8116 14.3262 55.6714 14.5443C55.6014 14.6054 55.547 14.6822 55.5125 14.7684C55.478 14.8547 55.4644 14.9479 55.473 15.0404V15.5365C55.473 15.6357 55.5722 15.7349 55.6714 15.8341C55.7723 15.9687 55.9118 16.0692 56.0714 16.1224C56.2309 16.1756 56.4029 16.1789 56.5644 16.1318C56.9561 15.9895 57.3241 15.7888 57.6558 15.5365C57.707 15.3467 57.8101 15.1749 57.9534 15.0404C58.1519 14.7427 58.2511 14.6435 58.2511 14.5443C58.3503 14.2466 58.3503 14.1474 58.2511 14.0482C58.253 13.9459 58.2261 13.8451 58.1734 13.7574C58.1208 13.6697 58.0446 13.5986 57.9534 13.5521C57.8737 13.4496 57.7634 13.3751 57.6386 13.3394C57.5137 13.3038 57.3808 13.3087 57.2589 13.3536C57.0455 13.3709 56.838 13.4329 56.65 13.5354C56.462 13.638 56.2976 13.7788 56.1675 13.9489ZM55.473 13.3536C55.902 12.8523 56.4824 12.5041 57.1266 12.3614C57.3888 12.3431 57.6516 12.3876 57.8931 12.4911C58.1347 12.5947 58.3481 12.7543 58.5157 12.9568C58.8133 13.2544 59.0118 13.4528 59.0118 13.8497C59.0953 13.9429 59.1565 14.0539 59.1909 14.1742C59.2252 14.2945 59.2319 14.421 59.2102 14.5443C59.1587 14.8348 59.0581 15.1144 58.9126 15.3711C58.7141 15.6688 58.4165 15.8672 58.218 16.1979C58.0247 16.4589 57.7763 16.6741 57.4906 16.8284C57.2048 16.9827 56.8886 17.0723 56.5644 17.0909C56.2882 17.1038 56.0124 17.0573 55.7557 16.9546C55.4989 16.8519 55.2672 16.6954 55.0761 16.4956C54.8776 16.2971 54.7784 15.9995 54.58 15.801C54.5058 15.5319 54.4724 15.2532 54.4808 14.9742C54.58 14.6766 54.58 14.2797 54.8776 14.0812C55.0444 13.8144 55.2444 13.5699 55.473 13.3536Z" fill="white"/>
<path d="M59.8387 17.9178L60.1364 17.2233L59.541 17.6201L57.5566 19.1084L57.0605 18.4139L61.0293 15.6357L61.327 16.2311L60.2356 19.1084L59.9379 19.803L60.5332 19.3069L62.4184 17.9178L63.0137 18.6123L59.0449 21.3905L58.7473 20.7952" fill="white"/>
<path d="M19.4231 35.8764H17.8686V38.3569H19.2577C19.6964 38.3734 20.1342 38.3061 20.5476 38.1584C20.6904 38.0172 20.8001 37.8461 20.8688 37.6573C20.9374 37.4686 20.9632 37.267 20.9444 37.067C20.9444 36.174 20.5476 35.8764 19.4561 35.8764H19.4231ZM19.1585 32.5029H17.8686V34.7188H19.2577C19.5554 34.7188 19.7538 34.5204 20.0845 34.4211C20.1871 34.3104 20.2663 34.1801 20.3175 34.038C20.3686 33.896 20.3906 33.7451 20.3822 33.5943C20.3822 33.1974 20.283 32.7675 20.0845 32.7013C19.8018 32.5463 19.4799 32.4773 19.1585 32.5029ZM19.5554 39.7459H16.248V31.1138H18.5962C18.9712 31.0826 19.3477 31.151 19.6877 31.3123C19.9887 31.2961 20.2904 31.3296 20.5806 31.4115C20.8783 31.5107 20.9775 31.6099 21.2752 31.7091C21.369 31.9606 21.5031 32.1952 21.6721 32.4037C21.7851 32.6889 21.8521 32.9904 21.8705 33.2967C21.8705 34.1896 21.6721 34.7849 21.176 35.0826C21.5997 35.2983 21.972 35.6029 22.2674 35.9756C22.4905 36.3422 22.5838 36.7732 22.532 37.1993C22.5314 37.6043 22.4643 38.0066 22.3335 38.3899C22.0359 38.7868 21.8374 38.9852 21.639 39.2829C21.2421 39.3821 20.9444 39.4813 20.6468 39.5806C20.3038 39.7305 19.9274 39.7875 19.5554 39.7459Z" fill="black"/>
<path d="M31.9571 39.7454H30.4688L29.6751 33.7922L27.4922 37.8602L25.3094 34.0899L24.6149 39.7454H23.0273L24.1188 31.1133H25.4086L27.4922 34.9828L29.6751 31.1133H30.8657L31.9571 39.7454Z" fill="black"/>
<path d="M39.3989 32.7008H36.9184V39.7454H35.4301V32.7008H33.0488V31.1133H39.3989V32.7008Z" fill="black"/>
<path d="M42.8719 32.5024H41.6813V35.0821H42.7727C43.2559 35.1392 43.7444 35.0346 44.1617 34.7844C44.2958 34.6577 44.4008 34.5033 44.4693 34.332C44.5378 34.1606 44.5683 33.9765 44.5586 33.7922C44.5882 33.6064 44.567 33.416 44.4971 33.2414C44.4272 33.0667 44.3113 32.9141 44.1617 32.8C43.7768 32.5603 43.323 32.4556 42.8719 32.5024ZM46.543 39.7454H44.8894L43.2357 36.5704H41.7474V39.7454H40.0938V31.1133H43.1696C45.1539 31.1133 46.1461 32.0063 46.1461 33.693C46.1493 34.1844 46.0116 34.6665 45.7493 35.0821C45.4872 35.5099 45.1086 35.8541 44.6578 36.0743L46.543 39.7454Z" fill="black"/>
<path d="M51.5029 36.0743L50.5107 33.5938L49.6839 36.0743H51.4698H51.5029ZM54.248 39.7454H52.6605L51.9659 37.6618H49.1878L48.361 39.7454H46.7734L49.75 31.1133H51.2383L54.248 39.7454Z" fill="black"/>
<path d="M58.1511 32.7014H56.4974V38.1585H58.1511C58.4894 38.1498 58.8224 38.072 59.1296 37.9298C59.4367 37.7876 59.7115 37.584 59.937 37.3317C60.3409 36.7876 60.5505 36.1238 60.5323 35.4465C60.5385 34.7195 60.3315 34.0066 59.937 33.396C59.4396 32.9654 58.8087 32.7201 58.1511 32.7014ZM58.1511 39.746H54.8438V31.1139H58.1511C58.7105 31.1039 59.2657 31.2139 59.7791 31.4364C60.2925 31.6589 60.7524 31.9887 61.1277 32.4038C61.8816 33.2457 62.2737 34.3507 62.2191 35.4796C62.2563 36.576 61.8648 37.6437 61.1277 38.4561C60.7524 38.8712 60.2925 39.201 59.7791 39.4235C59.2657 39.646 58.7105 39.756 58.1511 39.746Z" fill="black"/>
<path d="M66.7823 36.0743L65.7901 33.5938L64.9633 36.0743H66.7493H66.7823ZM69.5274 39.7454H67.9399L67.2454 37.6618H64.4672L63.5742 39.7454H62.0859L65.0625 31.1133H66.4516L69.5274 39.7454Z" fill="black"/>
<path d="M23.4239 60.8799L23.7215 61.1775L21.9356 65.1463L21.4395 64.8487" fill="white"/>
<path d="M25.3097 65.2461C25.3578 65.1723 25.3833 65.0861 25.3833 64.998C25.3833 64.91 25.3578 64.8238 25.3097 64.75C25.3097 64.6507 25.2105 64.5515 25.1113 64.3531C25.0104 64.3079 24.9218 64.2394 24.8528 64.1531C24.7838 64.0668 24.7363 63.9653 24.7144 63.857C24.6152 63.7578 24.3175 63.6586 24.3175 63.5593C24.2097 63.4138 24.1413 63.2429 24.1191 63.0632C24.0699 62.9717 24.0441 62.8695 24.0441 62.7656C24.0441 62.6617 24.0699 62.5594 24.1191 62.4679C24.1606 62.3152 24.2355 62.1737 24.3385 62.0536C24.4415 61.9335 24.5699 61.8378 24.7144 61.7734C25.1113 61.5749 25.4089 61.7734 25.8058 61.8726C26.0043 61.9718 26.3019 61.9718 26.4011 62.071C26.5851 62.1782 26.7523 62.312 26.8972 62.4679L26.5004 62.8648C26.5058 62.8244 26.5019 62.7833 26.4889 62.7447C26.4758 62.7061 26.4541 62.6711 26.4252 62.6422C26.3964 62.6134 26.3614 62.5917 26.3228 62.5786C26.2842 62.5656 26.2431 62.5617 26.2027 62.5671C25.9983 62.4928 25.824 62.3534 25.7066 62.1703C25.3097 62.1703 25.2105 62.071 24.8798 62.1703C24.7805 62.3687 24.6813 62.3687 24.5821 62.5671V62.964C24.6813 63.1625 24.7805 63.2617 24.8798 63.4601C25.029 63.5344 25.1635 63.6353 25.2766 63.7578C25.3759 63.857 25.4751 64.1547 25.6735 64.2539C25.872 64.3531 25.7727 64.6507 25.872 64.75C25.8877 64.9535 25.8537 65.1579 25.7727 65.3453C25.7746 65.4476 25.7477 65.5483 25.6951 65.636C25.6424 65.7237 25.5662 65.7949 25.4751 65.8414C25.3759 65.9406 25.2766 65.9406 25.1774 66.0398C24.8798 66.0398 24.7805 66.2383 24.5821 66.2383C24.4829 66.0398 24.1852 66.0398 23.9868 65.9406C23.7013 65.9257 23.4211 65.8584 23.16 65.7422C23.0857 65.5929 22.9848 65.4584 22.8623 65.3453L23.16 64.9484C23.16 65.1468 23.3584 65.1468 23.5568 65.2461C23.7553 65.3453 23.9537 65.4445 24.0529 65.5437C24.1522 65.6429 24.4498 65.5437 24.549 65.7422C24.6483 65.7422 24.7475 65.7422 24.7475 65.5437C24.8873 65.5586 25.0279 65.5234 25.1444 65.4445C25.1982 65.391 25.2331 65.3213 25.2436 65.2461" fill="white"/>
<path d="M27.5914 64.7481C27.5914 64.9466 27.4922 65.2442 27.4922 65.4427C27.5081 65.6436 27.5413 65.8428 27.5914 66.038C27.6134 66.1463 27.6608 66.2478 27.7298 66.3341C27.7989 66.4203 27.8875 66.4889 27.9883 66.5341C28.0406 66.6203 28.1131 66.6924 28.1995 66.7443C28.286 66.7962 28.3838 66.8262 28.4844 66.8317C28.6459 66.8788 28.8178 66.8756 28.9774 66.8224C29.1369 66.7692 29.2765 66.6686 29.3774 66.5341C29.8069 65.9974 30.0506 65.3359 30.0719 64.6489C30.0964 64.4451 30.062 64.2385 29.9727 64.0536C29.9687 63.8697 29.8982 63.6934 29.7743 63.5575C29.6101 63.4009 29.4027 63.2972 29.179 63.2598C28.7821 63.1606 28.5836 63.2598 28.1868 63.5575C27.8705 63.8836 27.6626 64.2994 27.5914 64.7481ZM27.0953 64.6489C27.1827 64.0975 27.4234 63.5817 27.7899 63.1606C27.9962 62.9958 28.2389 62.8827 28.4979 62.8309C28.7568 62.7792 29.0244 62.7901 29.2782 62.8629C29.5309 62.9025 29.7697 63.0049 29.9727 63.1606C30.2704 63.2598 30.3696 63.5575 30.4688 63.7559C30.5546 64.0226 30.5883 64.3033 30.568 64.5828C30.7665 64.8804 30.568 65.1781 30.568 65.4757C30.4183 66.0615 30.1353 66.6048 29.7412 67.0632C29.5205 67.1979 29.2742 67.2851 29.018 67.3193C28.7617 67.3534 28.5012 67.3338 28.2529 67.2617C28.0545 67.1625 27.7568 67.1625 27.5584 66.964C27.3599 66.7656 27.1615 66.5671 27.0623 66.4679C26.9681 66.1803 26.9343 65.8763 26.9631 65.5749C26.9594 65.2613 27.004 64.949 27.0953 64.6489Z" fill="white"/>
<path d="M35.3307 64.6496C35.3453 64.8664 35.274 65.0803 35.1322 65.2449C35.033 65.4434 34.9338 65.741 34.8346 65.9395C34.7354 66.1379 34.4377 66.4356 34.3385 66.634C34.2393 66.8324 33.9416 67.0309 33.8424 67.2293L33.4455 67.527H35.3307V68.0231L32.751 67.9239V67.7254C32.8502 67.6262 33.0486 67.527 33.1479 67.4278C33.2373 67.2595 33.3485 67.1039 33.4786 66.9647C33.7762 66.8655 33.8755 66.5679 33.9747 66.4686C34.0834 66.2555 34.2166 66.0557 34.3716 65.8733C34.4505 65.6654 34.5502 65.4659 34.6692 65.278C34.6692 64.9803 34.8677 64.8811 34.8677 64.6827C34.8063 64.4974 34.7046 64.328 34.57 64.1866C34.5177 64.1004 34.4452 64.0282 34.3588 63.9764C34.2723 63.9245 34.1746 63.8945 34.0739 63.8889C33.9955 63.8787 33.9159 63.8921 33.8451 63.9275C33.7744 63.9629 33.7159 64.0185 33.677 64.0874C33.6002 64.0886 33.5247 64.1071 33.456 64.1414C33.3873 64.1758 33.3272 64.2251 33.2801 64.2858L33.0817 63.8889C33.2696 63.7699 33.4691 63.6702 33.677 63.5913C33.872 63.5386 34.0774 63.5386 34.2723 63.5913H34.6692C34.8677 63.6905 34.9669 63.6905 35.0661 63.7897C35.1653 63.8889 35.1653 64.0874 35.3638 64.1866V64.6827" fill="white"/>
<path d="M36.818 68.0241L38.207 64.1545L38.4055 63.7576L38.0086 63.8568L36.2227 64.0553V63.5592L38.8024 63.46L38.9016 63.5592L37.3141 67.9248" fill="white"/>
<path d="M40.2911 65.3109C40.3475 65.5585 40.4483 65.7938 40.5887 66.0054C40.5937 66.2192 40.6628 66.4267 40.7872 66.6007C40.8239 66.679 40.8794 66.747 40.9486 66.7989C41.0177 66.8508 41.0986 66.885 41.184 66.8984C41.2833 66.9976 41.3825 66.9976 41.5809 66.9976C41.7793 66.9976 42.1762 66.6007 42.1762 66.4023C42.2765 65.9112 42.2765 65.405 42.1762 64.914C41.9778 64.7155 41.9778 64.5171 41.8786 64.2194C41.8746 64.0355 41.8041 63.8593 41.6801 63.7233C41.5809 63.6241 41.3825 63.5249 41.2833 63.4257C41.184 63.3265 41.0848 63.2272 40.7872 63.4257C40.638 63.4498 40.5002 63.5203 40.3933 63.6272C40.2864 63.734 40.216 63.8718 40.1918 64.021C40.1887 64.453 40.2219 64.8844 40.2911 65.3109ZM39.8942 65.4101C39.7747 65.1508 39.7129 64.8687 39.7129 64.5832C39.7129 64.2978 39.7747 64.0157 39.8942 63.7564C39.9229 63.5359 40.0279 63.3325 40.1911 63.1814C40.3542 63.0304 40.5651 62.9413 40.7872 62.9296C40.9944 62.8717 41.2131 62.8686 41.4219 62.9208C41.6306 62.973 41.8222 63.0786 41.9778 63.2272C42.3108 63.6957 42.516 64.2428 42.5731 64.8148C42.7747 65.393 42.7747 66.0225 42.5731 66.6007C42.4739 66.9976 42.1762 67.196 41.6801 67.4275C41.465 67.4932 41.2348 67.4902 41.0215 67.4191C40.8081 67.348 40.6222 67.2122 40.4895 67.0307C40.1405 66.5709 39.9336 66.019 39.8942 65.4431V65.4101Z" fill="white"/>
<path d="M43.8627 64.6504C43.8676 64.8643 43.9368 65.0717 44.0611 65.2458C44.1619 65.434 44.2964 65.6022 44.458 65.7419L44.7556 66.0395H45.2517C45.3932 65.9848 45.5155 65.8899 45.6037 65.7664C45.6918 65.643 45.7419 65.4965 45.7478 65.345C45.7547 64.8973 45.6525 64.4546 45.4502 64.0551C45.4353 63.7697 45.368 63.4894 45.2517 63.2283C45.1735 63.0512 45.032 62.9097 44.8549 62.8314C44.7556 62.633 44.6564 62.5338 44.5572 62.5338C44.4838 62.4847 44.3975 62.4585 44.3092 62.4585C44.2208 62.4585 44.1345 62.4847 44.0611 62.5338C43.8627 62.633 43.565 62.8314 43.565 63.1291C43.5366 63.6424 43.639 64.1545 43.8627 64.6174V64.6504ZM43.3666 64.7166C43.105 64.2073 43.0014 63.6315 43.0689 63.0629C43.0983 62.826 43.1996 62.6038 43.3593 62.4264C43.519 62.2489 43.7294 62.1248 43.9619 62.0707C44.458 61.9715 44.8549 61.9715 45.1525 62.3684C45.5712 62.7297 45.8614 63.2172 45.9794 63.7575C46.2428 64.3135 46.3459 64.932 46.277 65.5434C46.2287 65.7619 46.119 65.962 45.9608 66.1202C45.8026 66.2784 45.6025 66.3881 45.384 66.4364C45.1848 66.5051 44.9715 66.523 44.7635 66.4883C44.5556 66.4537 44.3596 66.3676 44.1934 66.238C43.8097 65.8152 43.5369 65.3038 43.3996 64.7497L43.3666 64.7166Z" fill="white"/>
<path d="M47.7328 64.9475L48.5266 64.6498L47.3359 61.8717L47.1375 61.4748L47.0383 61.8717L46.7406 62.5662L46.3438 62.467L47.0383 60.8795L47.3359 60.7803L49.0227 64.3522L49.7172 64.0545L49.9157 64.5506L47.9313 65.4436" fill="white"/>
</g>
<defs>
<clipPath id="clip0_277_493">
<rect width="69.553" height="70.8428" fill="white" transform="translate(0.107422 0.157227)"/>
</clipPath>
</defs>
</svg>
