<svg width="350" height="50" viewBox="0 0 350 50" fill="none" xmlns="http://www.w3.org/2000/svg">
<g clip-path="url(#clip0_816_26)">
<path d="M40.215 0.455078H30.835V14.9068C36.2716 12.9775 40.215 7.23758 40.215 0.455078V0.455078Z" fill="#D80001"/>
<path d="M30.8291 24.548V41.7619H38.8733V23.865H52.2783V15.6025H39.5324C34.7258 15.6145 30.8349 19.6169 30.8349 24.554L30.8291 24.548Z" fill="#171B1C"/>
<path d="M42.0645 8.71738H55.8486V0.460938H43.7853C43.7853 3.42079 43.167 6.22487 42.0645 8.72337V8.71738Z" fill="#171B1C"/>
<path d="M81.3163 33.4991C81.3163 33.4991 80.4179 33.9605 77.2913 33.9605C70.5888 33.9605 67.0188 28.9095 67.0188 21.1084C67.0188 13.3074 70.5946 8.25644 77.2913 8.25644C82.6521 8.25644 85.3354 10.0899 85.3354 10.0899L88.4621 2.75015C88.4621 2.75015 84.4429 0 77.2913 0C65.2279 0 58.9746 9.17915 58.9746 21.1084C58.9746 33.0377 65.2279 42.2169 77.2913 42.2169C86.2279 42.2169 89.3546 39.0054 89.3546 39.0054V19.7304H81.3104V33.4991H81.3163Z" fill="#171B1C"/>
<path d="M0 32.8098C0 37.7529 3.89667 41.7553 8.715 41.7553H24.1325V33.4988H8.04417V24.3197H21.4492V16.0572H8.04417V8.71751H24.1325V0.455078H0V32.8098Z" fill="#171B1C"/>
<path d="M236.81 27.1723C239.628 26.6511 241.74 24.6379 241.74 21.1028C241.74 16.4414 238.14 14.2305 232.039 14.2305H226.054V41.7619H233.369C239.237 41.7619 243 39.3892 243 34.1286C243 29.3833 240.065 27.5378 236.816 27.1723H236.81ZM228.399 16.2377H232.272C236.775 16.2377 239.354 17.5618 239.354 21.2646C239.354 24.4761 237.044 26.3275 233.8 26.3275H228.399V16.2377ZM233.369 39.7487H228.399V28.2568H234.069C237.709 28.2568 240.567 29.9465 240.567 34.1286C240.567 38.3108 237.709 39.7547 233.363 39.7547L233.369 39.7487Z" fill="#171B1C"/>
<path d="M260.931 37.1003V26.9685C260.931 22.6665 258.895 20.2998 254.24 20.2998C252.087 20.2998 250.057 20.7791 247.782 21.7078L248.371 23.4754C250.407 22.7144 252.286 22.271 253.925 22.271C257.331 22.271 258.661 23.757 258.661 27.0943V29.1015H254.747C249.503 29.1015 246.254 31.5161 246.254 35.9379C246.254 39.6767 248.64 42.2051 252.589 42.2051C255.331 42.2051 257.518 41.0787 258.965 38.6701C259.28 40.9229 260.336 41.8456 262.138 42.2051L262.646 40.5574C261.549 40.1141 260.925 39.431 260.925 37.1003H260.931ZM258.661 36.615C257.372 38.9876 255.57 40.3118 252.991 40.3118C250.413 40.3118 248.686 38.7 248.686 35.8061C248.686 32.4688 250.996 30.8211 255.103 30.8211H258.661V36.609V36.615Z" fill="#171B1C"/>
<path d="M276.021 20.2998C273.046 20.2998 270.777 21.9056 269.173 24.3202L268.94 20.7432H266.985V41.7618H269.255V26.5311C270.94 23.9607 272.819 22.1932 275.595 22.1932C278.098 22.1932 279.469 23.6012 279.469 27.0524V41.7618H281.738V26.7288C281.738 22.6725 279.743 20.2998 276.021 20.2998V20.2998Z" fill="#171B1C"/>
<path d="M287.612 41.7616H289.881V11.8994L287.612 12.181V41.7616Z" fill="#171B1C"/>
<path d="M307.825 20.7432H305.556V41.7617H307.825V20.7432Z" fill="#171B1C"/>
<path d="M342.761 38.5861H339.436C336.969 38.5861 336.187 37.6634 336.187 36.4171C336.187 35.4525 336.77 34.5657 337.75 34.0085C338.532 34.2901 339.436 34.4099 340.41 34.4099C345.03 34.4099 347.807 31.5939 347.807 27.4956C347.807 24.6017 346.477 22.8341 344.325 21.7916C346.786 21.7497 348.589 21.5879 349.994 21.1864L349.289 18.9336C347.294 19.7784 345.806 20.3776 340.329 20.2997C335.831 20.2997 332.815 23.1936 332.815 27.4117C332.815 30.2278 333.912 32.0792 336.257 33.3195C334.851 34.2422 334.029 35.4884 334.029 36.8964C334.029 38.9096 335.674 40.5933 339.075 40.5933H342.399C345.299 40.5933 347.02 41.8395 347.02 44.0924C347.02 46.5849 345.217 48.0708 340.445 48.0708C335.674 48.0708 334.069 46.9024 334.029 43.9725H331.917C331.917 48.1487 334.262 50.0001 340.445 50.0001C346.629 50.0001 349.329 47.7532 349.329 43.9725C349.329 40.8389 346.827 38.5861 342.755 38.5861H342.761ZM335.166 27.4117C335.166 24.3201 336.852 22.1091 340.334 22.1091C343.817 22.1091 345.497 24.1583 345.497 27.4537C345.497 30.7491 343.659 32.7143 340.334 32.7143C337.202 32.7143 335.166 30.785 335.166 27.4057V27.4117Z" fill="#171B1C"/>
<path d="M322.845 20.2998C319.87 20.2998 317.601 21.9056 315.997 24.3202L315.764 20.7432H313.81V41.7618H316.079V26.5311C317.759 23.9607 319.637 22.1932 322.42 22.1932C324.922 22.1932 326.293 23.6012 326.293 27.0524V41.7618H328.562V26.7288C328.562 22.6725 326.567 20.2998 322.845 20.2998V20.2998Z" fill="#171B1C"/>
<path d="M306.653 11.498C305.638 11.498 304.973 12.259 304.973 13.1877C304.973 14.1164 305.638 14.8773 306.653 14.8773C307.668 14.8773 308.373 14.1164 308.373 13.1877C308.373 12.259 307.708 11.498 306.653 11.498Z" fill="#171B1C"/>
<path d="M301.35 20.7432H298.725L290.115 30.2638L299.507 41.7617H302.249L292.74 30.144L301.35 20.7432Z" fill="#171B1C"/>
<path d="M145.255 20.7373H142.986V41.7559H145.255V20.7373Z" fill="#171B1C"/>
<path d="M131.81 25.4407L131.611 20.7373H129.657V41.7619H131.926V28.8979C133.023 24.5959 134.551 22.5049 137.404 22.5049C138.11 22.5049 138.617 22.5887 139.206 22.7445L139.638 20.5336C139.09 20.3718 138.384 20.2939 137.602 20.2939C134.744 20.2939 132.906 21.9836 131.81 25.4347V25.4407Z" fill="#171B1C"/>
<path d="M144.083 11.498C143.068 11.498 142.403 12.259 142.403 13.1877C142.403 14.1164 143.068 14.8773 144.083 14.8773C145.098 14.8773 145.804 14.1164 145.804 13.1877C145.804 12.259 145.139 11.498 144.083 11.498Z" fill="#171B1C"/>
<path d="M115.769 14.2305H109.469V41.7619H111.814V31.0309H115.646C121.48 31.0309 125.662 28.6583 125.662 22.4749C125.662 16.7649 121.981 14.2365 115.763 14.2365L115.769 14.2305ZM115.652 29.0597H111.82V16.2017H115.734C120.43 16.2017 123.206 17.8494 123.206 22.5109C123.206 27.5738 120.115 29.0597 115.652 29.0597V29.0597Z" fill="#171B1C"/>
<path d="M207.129 20.2998C202.119 20.2998 198.951 24.7216 198.951 31.4322C198.951 38.1428 202.241 42.2051 207.637 42.2051C210.338 42.2051 212.409 41.2405 214.328 39.6347L213.272 38.1488C211.469 39.5149 209.982 40.2399 207.754 40.2399C204.23 40.2399 201.652 37.8672 201.378 32.1632H215.034C215.075 31.7618 215.115 31.1207 215.115 30.4736C215.115 24.2842 212.455 20.3058 207.135 20.3058L207.129 20.2998ZM212.881 30.3477H201.378C201.611 24.6377 204.003 22.2291 207.211 22.2291C211.085 22.2291 212.887 25.165 212.887 29.7486V30.3477H212.881Z" fill="#171B1C"/>
<path d="M193.993 40.1919C191.922 40.1919 190.983 38.9876 190.983 36.537V22.6305H195.988L196.262 20.7371H190.983V15.4346L188.714 15.7162V20.7371H185.272V22.6305H188.714V36.6569C188.714 40.3177 190.633 42.2051 193.725 42.2051C195.37 42.2051 196.776 41.7258 198.03 40.8809L197.132 39.2333C196.111 39.8744 195.137 40.1979 193.999 40.1979L193.993 40.1919Z" fill="#171B1C"/>
<path d="M157.371 39.7127L151.153 20.7373H148.65L155.965 41.7619H158.783L165.865 20.7373H163.438L157.371 39.7127Z" fill="#171B1C"/>
<path d="M182.186 37.1003V26.9685C182.186 22.6665 180.151 20.2998 175.496 20.2998C173.343 20.2998 171.313 20.7851 169.038 21.7078L169.627 23.4754C171.663 22.7144 173.541 22.271 175.181 22.271C178.587 22.271 179.917 23.757 179.917 27.0943V29.1015H176.003C170.759 29.1015 167.51 31.5101 167.51 35.9319C167.51 39.6707 169.896 42.1991 173.851 42.1991C176.592 42.1991 178.78 41.0787 180.226 38.6641C180.541 40.9169 181.597 41.8396 183.4 42.1991L183.907 40.5515C182.811 40.1081 182.186 39.425 182.186 37.0943V37.1003ZM179.917 36.615C178.628 38.9876 176.826 40.3118 174.241 40.3118C171.657 40.3118 169.936 38.7 169.936 35.8121C169.936 32.4748 172.246 30.8271 176.353 30.8271H179.911V36.615H179.917Z" fill="#171B1C"/>
</g>
<defs>
<clipPath id="clip0_816_26">
<rect width="350" height="50" fill="white"/>
</clipPath>
</defs>
</svg>
