<svg width="253" height="36" viewBox="0 0 253 36" fill="none" xmlns="http://www.w3.org/2000/svg">
<g clip-path="url(#clip0_816_10)">
<path d="M19.4553 20.5021C17.3626 22.5404 14.6487 23.7955 11.483 23.7955C5.22384 23.7923 0 18.7942 0 12.3302C0 5.86624 5.045 0.912109 11.5175 0.912109C14.7648 0.912109 17.6575 2.18917 19.7753 4.37214L17.5979 6.29402C16.026 4.62377 13.8738 3.69271 11.5772 3.69271C6.80511 3.69271 3.04645 7.75982 3.04645 12.3648C3.04645 16.9698 6.92433 21.0117 11.483 21.0117C13.8141 21.0117 15.9319 19.9863 17.4567 18.4953L19.4553 20.499V20.5021Z" fill="#020203"/>
<path d="M47.2063 23.4055L45.2423 18.228H35.0927L33.1286 23.4055H29.8438L38.5345 1.26758H41.8664L50.5509 23.4086H47.2063V23.4055ZM40.1973 4.9761L36.2002 15.3562H44.1348L40.1973 4.9761Z" fill="#020203"/>
<path d="M62.1084 23.4027V1.26172H65.1517V20.5278H76.9799V23.4027H62.1084Z" fill="#020203"/>
<path d="M123.741 17.9291C124.968 19.4578 126.574 21.0054 128.987 21.0054C131.522 21.0054 133.103 19.2754 133.103 17.3315C133.103 12.4529 122.928 14.3118 122.928 7.07409C122.928 3.48195 125.463 0.883789 129.793 0.883789C131.826 0.883789 133.671 1.44368 135.528 2.97239L133.828 5.30948C132.601 4.23687 131.233 3.68641 129.674 3.68641C127.295 3.68641 125.975 4.95089 125.975 6.74067C125.975 11.764 136.146 9.61564 136.146 17.1176C136.146 21.1029 133.253 23.786 129.078 23.786C126.21 23.786 123.521 22.509 121.83 20.0523L123.735 17.9291H123.741Z" fill="#020203"/>
<path d="M153.286 23.4027V4.17443H146.242V1.26172H163.376V4.17443H156.354V23.4027H153.286Z" fill="#020203"/>
<path d="M183.986 23.7927C177.633 23.7927 172.443 18.8292 172.443 12.3652C172.443 5.90126 177.391 0.87793 183.948 0.87793C190.506 0.87793 195.5 5.93586 195.5 12.3306C195.5 18.7254 190.396 23.7927 183.983 23.7927M192.454 12.3652C192.454 7.60611 188.789 3.69313 183.948 3.69313C179.107 3.69313 175.477 7.70047 175.477 12.3998C175.477 17.0992 179.236 21.0121 183.986 21.0121C188.736 21.0121 192.457 17.1463 192.457 12.3652" fill="#020203"/>
<path d="M222.921 23.4027L209.581 5.2722V23.4027H206.534V1.26172H210.475L223.04 18.2851V1.26172H226.084V23.4027H222.921Z" fill="#020203"/>
<path d="M238.675 23.4027V1.26172H253V4.17443H241.721V10.4245H251.334V13.2869H241.721V20.5278H253V23.4027H238.675Z" fill="#020203"/>
<path d="M84.538 36C84.2776 36 84.014 35.9182 83.7881 35.7609C83.3363 35.4149 83.1575 34.7953 83.3709 34.2574L96.7834 0.798951C96.9748 0.320839 97.4391 0 97.9505 0C98.4619 0 98.9388 0.320839 99.1302 0.798951L105.283 16.1269L111.15 11.3174C111.567 10.9714 112.16 10.9368 112.624 11.2325C113.076 11.5187 113.302 12.0786 113.17 12.6039L109.493 27.265C109.361 27.7903 108.897 28.1709 108.351 28.2212C107.78 28.2433 107.303 27.935 107.102 27.4223L104.222 20.2663L85.338 35.7138C85.1121 35.9056 84.8266 36 84.5411 36M97.96 4.66474L87.5374 30.6464L103.231 17.7971L97.96 4.66474V4.66474ZM92.8428 49.9219L94.5684 54.206L96.3661 47.0375L92.8428 49.925V49.9219Z" fill="#020203"/>
</g>
<defs>
<clipPath id="clip0_816_10">
<rect width="253" height="36" fill="white"/>
</clipPath>
</defs>
</svg>
