<svg width="235" height="51" viewBox="0 0 235 51" fill="none" xmlns="http://www.w3.org/2000/svg">
<path fill-rule="evenodd" clip-rule="evenodd" d="M264.995 45.2484C263.476 46.2586 262.116 46.9912 260.91 47.4735C259.582 47.924 257.975 48.2516 256.077 48.2516C249.472 48.2516 246.233 43.8014 246.233 39.0099C246.233 34.8418 248.897 29.9593 255.002 29.9593C258.844 29.9593 262.396 31.9888 263.766 34.4641H265V30.3506H264.991C264.757 30.2278 260.704 28.1574 255.315 28.1574C244.779 28.1574 240.516 34.9829 240.516 39.6196C240.516 40.5707 240.656 41.549 240.951 42.5091H240.918C241.007 42.7685 241.105 43.0233 241.208 43.2781C241.652 44.4475 242.32 45.5806 243.218 46.6044C244.181 47.7238 245.363 48.6475 246.77 49.3619C248.462 50.2219 250.323 50.7224 252.361 50.8817C253.02 50.9499 253.707 50.9909 254.431 50.9909C256.563 50.9909 258.33 50.6223 259.779 50.0672C259.798 50.0626 259.816 50.0535 259.84 50.049C261.541 49.4711 263.257 48.47 265 47.0321V45.2438H264.995V45.2484ZM206.216 47.5918L206.328 48.3517C205.758 48.8295 205.183 49.1753 204.645 49.4984C203.533 50.1536 201.71 50.7452 199.995 50.7497C195.03 50.7679 191.375 48.4973 191.375 44.079V43.9425C191.375 43.9425 191.375 43.9379 191.375 43.9334C191.375 43.9288 191.375 43.9197 191.375 43.9151H191.38V30.792H187.907L187.874 28.8763H191.366V24.5763H196.765V28.8581H205.323V30.792H196.643V44.0335C196.643 48.3608 200.364 48.8841 202.285 48.8158C203.781 48.7612 205.454 47.9968 206.221 47.5918H206.216ZM230.415 47.8193C228.98 48.2698 227.339 48.4928 225.488 48.4928C222.838 48.4928 220.473 47.6874 218.519 45.9491C216.523 44.1654 215.733 41.3124 215.653 39.2329V37.9315H235.879C235.879 31.0468 229.447 28.2984 224.142 28.2984C214.592 28.2984 210.026 34.3959 209.941 39.4695C209.909 41.2669 210.498 43.3873 211.531 45.0527C212.699 46.932 214.326 48.4063 216.457 49.4392C218.589 50.4767 220.987 50.9954 223.646 50.9954C226.086 50.9954 228.209 50.7042 230.013 50.1218C231.812 49.5393 233.64 48.5155 235.486 47.0412L235.449 45.3166C233.533 46.5316 231.855 47.3643 230.42 47.8148L230.415 47.8193ZM223.394 29.973C226.825 29.973 230.134 31.6975 230.134 36.2069H215.901C216.401 32.9944 218.837 29.973 223.389 29.973H223.394ZM146.899 48.4928C148.746 48.4928 150.391 48.2698 151.826 47.8193C153.261 47.3688 154.934 46.5361 156.869 45.3212L156.907 47.0458C155.061 48.5155 153.228 49.5393 151.433 50.1263C149.629 50.7088 147.512 51 145.067 51C142.412 51 140.019 50.4813 137.887 49.4438C135.756 48.4154 134.129 46.9366 132.96 45.0573C131.923 43.3873 131.334 41.2669 131.366 39.474C131.455 34.4004 136.013 28.303 145.567 28.303C150.868 28.303 157.295 31.0514 157.295 37.936H137.074V39.2374C137.149 41.3169 137.939 44.17 139.934 45.9537C141.888 47.6874 144.249 48.4973 146.899 48.4973V48.4928ZM151.545 36.2069C151.545 31.693 148.241 29.973 144.805 29.973C140.252 29.973 137.817 32.9989 137.317 36.2069H151.55H151.545ZM97.2207 49.3209V39.2829V34.7599C97.2207 30.6191 92.668 28.2893 87.9843 28.2893C83.9925 28.2893 80.3699 30.4781 79.0003 31.5974V28.485H78.9863C78.9863 28.08 78.79 27.9708 78.5983 27.9708C77.5887 28.3258 76.7754 28.617 76.0228 28.89C74.5878 29.4042 73.3771 29.841 71.4747 30.4781V30.9968C73.0312 31.0878 73.5127 31.9205 73.6623 33.0035V49.3255C73.6623 50.049 72.7555 50.3129 71.8533 50.3129V50.9864H80.7766V50.3129C79.8744 50.3129 78.9676 49.9716 78.9676 49.3255V33.5404H79.0097V33.4631C80.1923 32.3437 82.693 31.0423 85.3106 31.0423C90.8029 31.0423 91.9294 33.8817 91.9294 36.439L91.9154 49.3391C91.9154 50.0444 90.9992 50.3038 90.1111 50.3038V50.9772H99.039V50.3038C98.1369 50.3175 97.2207 50.0763 97.2207 49.33V49.3209ZM122.471 29.6226V28.9491H130.263V29.6226C129.385 29.6226 128.249 29.9002 127.333 31.3654L115.979 50.7816L105.008 31.7567C104.027 30.1231 103.092 29.618 101.731 29.618V28.9446H112.557V29.618C111.304 29.618 110.388 30.3233 110.701 31.3108L117.47 43.9334L124.28 31.4746C124.832 30.4143 123.878 29.6271 122.462 29.6271L122.471 29.6226ZM163.82 44.9845L164.096 49.0798C166.283 50.0308 169.219 50.6997 171.72 50.6997C179.152 50.6997 182.466 47.3643 182.466 44.2109C182.466 40.1884 178.292 38.8233 174.421 37.5538C171.079 36.4617 167.971 35.4425 167.971 32.8533C167.971 30.8057 170.345 29.709 172.842 29.709C176.847 29.709 179.161 30.3461 179.923 32.9807H180.727L180.657 29.5634C178.222 28.6124 175.534 28.1756 173.533 28.1756C166.662 28.1756 163.848 31.6111 163.848 34.2776C163.848 38.4184 167.803 39.8017 171.453 41.0757C174.576 42.1678 177.474 43.1825 177.474 45.7762C177.474 47.4507 176.095 49.1662 172.407 49.1662C167.854 49.1662 165.503 47.792 164.437 44.8707L163.82 44.9754V44.9845ZM63.7528 18.3696V17.6962H54.8529V18.3696C55.755 18.3696 56.6618 18.7428 56.6618 19.3571V49.33C56.6618 49.9944 55.755 50.3175 54.8529 50.3175V50.9909H63.7528V50.3175C62.8506 50.3175 61.9438 49.9762 61.9438 49.33V19.3571C61.9438 18.6927 62.8506 18.3696 63.7528 18.3696ZM21.5999 7.90391V17.7053H41.5545V19.3389H37.9226C37.4785 26.1825 31.6076 31.7658 23.9371 32.9898V30.7056C29.3079 29.3996 33.3464 24.8493 33.7204 19.3389H21.5999V29.3405H21.5859V35.174H21.5999V37.0487H19.9546V33.2401C11.1622 32.8852 4.09936 26.8651 3.62258 19.3434H0V17.7098H19.9499V5.98367C14.308 6.32495 9.64308 10.1836 8.24079 15.3209H4.01522C5.66525 8.95503 12.1158 4.14079 19.9546 3.82227V0H21.5999V2.0795H21.5859V7.90391H21.5999ZM7.84347 19.3389C8.25949 25.6274 13.462 30.6601 19.9499 31.0559V19.3389H7.84347ZM37.5346 15.3209H33.3137C32.1171 10.9162 28.4992 7.45343 23.9324 6.3386V4.05434C30.6868 5.13276 36.0529 9.59663 37.5346 15.3209Z" fill="#0D0802"/>
</svg>
